# xmcd
#
# Track frame offsets:
#	150
#	15025
#	33708
#	52595
#	70256
#	87420
#	106796
#	120916
#	138093
#	150860
#
# Disc length: 2245 seconds
#
# Revision: 1
# Processed by: cddbd v1.5.1PL0 Copyright (c) Steve Scherf et al.
# Submitted via: audiograbber 1.80
#
DISCID=6208c30a
DTITLE=Kenneth Weines - Kenneth Weines
DYEAR=1900
DGENRE=
TTITLE0=Leave Me Alone
TTITLE1=Someone From The Other Side
TTITLE2=Please Come Home
TTITLE3=Not My Angel Anymore
TTITLE4='59 Ford
TTITLE5=It Ain't Easy
TTITLE6=I Wonder
TTITLE7=Moonbeam Over Texas Skies
TTITLE8=Married Anyway
TTITLE9=Unwritten Rule
EXTD=
EXTT0=
EXTT1=
EXTT2=
EXTT3=
EXTT4=
EXTT5=
EXTT6=
EXTT7=
EXTT8=
EXTT9=
PLAYORDER=
